<svg xmlns="http://www.w3.org/2000/svg" xmlns:xlink="http://www.w3.org/1999/xlink" viewBox="0 0 1920 1060" width="1920" height="1060" preserveAspectRatio="xMidYMid meet" style="width: 100%; height: 100%; transform: translate3d(0px, 0px, 0px); content-visibility: visible;"><defs><clipPath id="__lottie_element_2"><rect width="1920" height="1060" x="0" y="0"/></clipPath><g id="__lottie_element_3"><g style="display: none;"><g><path/><path stroke-linecap="butt" stroke-linejoin="miter" fill-opacity="0" stroke-miterlimit="4"/></g></g></g><clipPath id="__lottie_element_7"><path d="M0,0 L1920,0 L1920,1060 L0,1060z"/></clipPath><mask id="__lottie_element_3_1" mask-type="alpha"><use xmlns:ns1="http://www.w3.org/1999/xlink" ns1:href="#__lottie_element_3"/></mask><g id="__lottie_element_34"><g style="display: none;"><g><path/><path stroke-linecap="butt" stroke-linejoin="miter" fill-opacity="0" stroke-miterlimit="4"/></g></g></g><clipPath id="__lottie_element_38"><path d="M0,0 L1920,0 L1920,1060 L0,1060z"/></clipPath><mask id="__lottie_element_34_1" mask-type="alpha"><use xmlns:ns2="http://www.w3.org/1999/xlink" ns2:href="#__lottie_element_34"/></mask><g id="__lottie_element_65"><g transform="matrix(1,0,0,1,960,429)" opacity="1" style="display: block;"><g opacity="1" transform="matrix(1,0,0,1,7.139999866485596,220.89500427246094)"><path fill="rgb(129,234,95)" fill-opacity="1" d=" M355.1405029296875,-202.10450744628906 C355.1405029296875,-202.10450744628906 355.1405029296875,202.10450744628906 355.1405029296875,202.10450744628906 C355.1405029296875,202.10450744628906 -355.1405029296875,202.10450744628906 -355.1405029296875,202.10450744628906 C-355.1405029296875,202.10450744628906 -355.1405029296875,-202.10450744628906 -355.1405029296875,-202.10450744628906 C-355.1405029296875,-202.10450744628906 355.1405029296875,-202.10450744628906 355.1405029296875,-202.10450744628906z"/><path stroke-linecap="butt" stroke-linejoin="miter" fill-opacity="0" stroke-miterlimit="4" stroke="rgb(244,144,0)" stroke-opacity="1" stroke-width="0" d=" M355.1405029296875,-202.10450744628906 C355.1405029296875,-202.10450744628906 355.1405029296875,202.10450744628906 355.1405029296875,202.10450744628906 C355.1405029296875,202.10450744628906 -355.1405029296875,202.10450744628906 -355.1405029296875,202.10450744628906 C-355.1405029296875,202.10450744628906 -355.1405029296875,-202.10450744628906 -355.1405029296875,-202.10450744628906 C-355.1405029296875,-202.10450744628906 355.1405029296875,-202.10450744628906 355.1405029296875,-202.10450744628906z"/></g></g></g><clipPath id="__lottie_element_69"><path d="M0,0 L1920,0 L1920,1060 L0,1060z"/></clipPath><mask id="__lottie_element_65_1" mask-type="alpha"><use xmlns:ns3="http://www.w3.org/1999/xlink" ns3:href="#__lottie_element_65"/></mask></defs><g clip-path="url(#__lottie_element_2)"><g mask="url(#__lottie_element_65_1)" style="display: block;"><g clip-path="url(#__lottie_element_69)" transform="matrix(1,0,0,1,0,-102)" opacity="1"><g transform="matrix(0.3799999952316284,0,0,0.3799999952316284,959.2466430664062,1085.3638916015625)" opacity="1" style="display: block;"><g opacity="1" transform="matrix(1,0,0,1,0,0)"><path fill="rgb(88,204,2)" fill-opacity="1" d=" M-214.23199462890625,-184.30499267578125 C-214.23199462890625,-184.30499267578125 -328.1180114746094,209.56700134277344 -328.1180114746094,209.56700134277344 C-334.22198486328125,230.67799377441406 -318.00299072265625,251.5030059814453 -296.0870056152344,250.69900512695312 C-190.78599548339844,246.83200073242188 -97.97799682617188,174.66799926757812 -67.88899993896484,70.60900115966797 C-37.79999923706055,-33.45100021362305 -77.91600036621094,-143.52499389648438 -165.10499572753906,-202.29299926757812 C-183.2519989013672,-214.52499389648438 -208.1280059814453,-205.41600036621094 -214.23199462890625,-184.30499267578125z"/></g></g><g transform="matrix(0.3799999952316284,0,0,0.3799999952316284,959.2466430664062,1085.3638916015625)" opacity="1" style="display: block;"><g opacity="1" transform="matrix(1,0,0,1,0,0)"><path fill="rgb(129,234,95)" fill-opacity="1" d=" M-296.0870056152344,250.69900512695312 C-244.677001953125,248.81100463867188 -196.2449951171875,230.6439971923828 -156.63499450683594,200.4340057373047 C-115.11399841308594,168.76600646972656 -83.28800201416016,123.86399841308594 -67.88899993896484,70.60900115966797 C-64.86699676513672,60.15700149536133 -64.97599792480469,53.62900161743164 -67.59400177001953,50.34299850463867 C-78.59600067138672,36.534000396728516 -133.91400146484375,79.9489974975586 -187.5050048828125,129.85499572753906 C-248.13400268554688,186.31500244140625 -306.552001953125,251.08299255371094 -296.0870056152344,250.69900512695312z"/></g></g><g transform="matrix(-0.3799999952316284,0,0,0.3799999952316284,960.7533569335938,1085.3638916015625)" opacity="1" style="display: block;"><g opacity="1" transform="matrix(1,0,0,1,0,0)"><path fill="rgb(88,204,2)" fill-opacity="1" d=" M-214.23199462890625,-184.30499267578125 C-214.23199462890625,-184.30499267578125 -328.1180114746094,209.56700134277344 -328.1180114746094,209.56700134277344 C-334.22198486328125,230.67799377441406 -318.00299072265625,251.5030059814453 -296.0870056152344,250.69900512695312 C-190.78599548339844,246.83200073242188 -97.97799682617188,174.66799926757812 -67.88899993896484,70.60900115966797 C-37.79999923706055,-33.45100021362305 -77.91600036621094,-143.52499389648438 -165.10499572753906,-202.29299926757812 C-183.2519989013672,-214.52499389648438 -208.1280059814453,-205.41600036621094 -214.23199462890625,-184.30499267578125z"/></g></g><g transform="matrix(-0.3799999952316284,0,0,0.3799999952316284,960.7533569335938,1085.3638916015625)" opacity="1" style="display: block;"><g opacity="1" transform="matrix(1,0,0,1,0,0)"><path fill="rgb(129,234,95)" fill-opacity="1" d=" M-296.0870056152344,250.69900512695312 C-190.78599548339844,246.83200073242188 -97.97799682617188,174.66799926757812 -67.88899993896484,70.60900115966797 C-66.61199951171875,66.19200134277344 -65.89399719238281,62.47700119018555 -65.68800354003906,59.40999984741211 C-65.48899841308594,56.44200134277344 -65.76899719238281,54.082000732421875 -66.48699951171875,52.28300094604492 C-75.59300231933594,29.468000411987305 -155.0709991455078,96.98799896240234 -218.25599670410156,159.35299682617188 C-266.1929931640625,206.66900634765625 -304.75201416015625,251.01699829101562 -296.0870056152344,250.69900512695312z"/></g></g><g transform="matrix(0.3799999952316284,0,0,0.3799999952316284,959.2466430664062,1085.3638916015625)" opacity="1" style="display: block;"><g opacity="1" transform="matrix(1,0,0,1,0,0)"><path fill="rgb(88,204,2)" fill-opacity="1" d=" M-273.8699951171875,-252.35400390625 C-273.8699951171875,-316.52899169921875 -205.9029998779297,-358.6199951171875 -146.74000549316406,-333.7569885253906 C-91.57099914550781,-310.5719909667969 -32.513999938964844,-289.3450012207031 -1.215999960899353,-289.3450012207031 C30.082000732421875,-289.3450012207031 89.13999938964844,-310.5719909667969 144.3090057373047,-333.7569885253906 C203.47000122070312,-358.6199951171875 271.4389953613281,-316.52899169921875 271.4389953613281,-252.35400390625 C271.4389953613281,-252.35400390625 271.4389953613281,34.03499984741211 271.4389953613281,34.03499984741211 C271.4389953613281,184.6199951171875 149.36700439453125,306.6889953613281 -1.215999960899353,306.6889953613281 C-151.7989959716797,306.6889953613281 -273.8699951171875,184.6199951171875 -273.8699951171875,34.03499984741211 C-273.8699951171875,34.03499984741211 -273.8699951171875,-252.35400390625 -273.8699951171875,-252.35400390625z"/></g><g opacity="1" transform="matrix(1,0,0,1,0,0)"><path fill="rgb(142,224,0)" fill-opacity="1" d=" M-95.66400146484375,107.39399719238281 C-95.66400146484375,107.39399719238281 -27.041000366210938,107.36900329589844 -27.041000366210938,107.36900329589844 C-23.363000869750977,107.36699676513672 -20.756000518798828,110.77300262451172 -21.89299964904785,114.09400177001953 C-27.356000900268555,130.05099487304688 -43.236000061035156,141.07400512695312 -61.36600112915039,141.08099365234375 C-79.49600219726562,141.08799743652344 -95.36799621582031,130.0749969482422 -100.81800079345703,114.12200164794922 C-101.9520034790039,110.802001953125 -99.34200286865234,107.39600372314453 -95.66400146484375,107.39399719238281z"/></g><g opacity="1" transform="matrix(1,0,0,1,0,0)"><path fill="rgb(142,224,0)" fill-opacity="1" d=" M24.0939998626709,107.39399719238281 C24.0939998626709,107.39399719238281 92.71700286865234,107.36900329589844 92.71700286865234,107.36900329589844 C96.3949966430664,107.36699676513672 99.00299835205078,110.77300262451172 97.86599731445312,114.09400177001953 C92.40299987792969,130.05099487304688 76.52200317382812,141.07400512695312 58.391998291015625,141.08099365234375 C40.262001037597656,141.08799743652344 24.391000747680664,130.0749969482422 18.94099998474121,114.12200164794922 C17.80699920654297,110.802001953125 20.416000366210938,107.39600372314453 24.0939998626709,107.39399719238281z"/></g><g opacity="1" transform="matrix(1,0,0,1,0,0)"><path fill="rgb(142,224,0)" fill-opacity="1" d=" M-35.7869987487793,165.3159942626953 C-35.7869987487793,165.3159942626953 32.83700180053711,165.29100036621094 32.83700180053711,165.29100036621094 C36.51499938964844,165.2899932861328 39.12200164794922,168.69500732421875 37.98500061035156,172.01499938964844 C32.52199935913086,187.9739990234375 16.642000198364258,198.99600219726562 -1.4880000352859497,199.00100708007812 C-19.618000030517578,199.01100158691406 -35.48899841308594,188 -40.93899917602539,172.04600524902344 C-42.073001861572266,168.72500610351562 -39.46500015258789,165.31700134277344 -35.7869987487793,165.3159942626953z"/></g><g opacity="1" transform="matrix(1,0,0,1,0,0)"><path fill="rgb(137,226,25)" fill-opacity="1" d=" M-60.112998962402344,-213.20700073242188 C-30.173999786376953,-182.77099609375 22.618999481201172,-182.77099609375 55.96699905395508,-213.20700073242188 C89.31400299072266,-243.64300537109375 50.95500183105469,-35.95100021362305 50.95500183105469,-36.48500061035156 C50.95500183105469,-36.74100112915039 33.13100051879883,-36.81399917602539 -2.5169999599456787,-36.70500183105469 C-12.072999954223633,-36.67599868774414 -29.290000915527344,-36.60300064086914 -54.16600036621094,-36.48500061035156 C-78.09100341796875,-174.58999633789062 -80.072998046875,-233.4980010986328 -60.112998962402344,-213.20700073242188z"/></g><g opacity="1" transform="matrix(1,0,0,1,0,0)"><path fill="rgb(142,224,0)" fill-opacity="1" d=" M126.88800048828125,-291.6109924316406 C126.88800048828125,-291.6109924316406 46.10100173950195,-201.67100524902344 46.10100173950195,-201.67100524902344 C41.770999908447266,-196.85000610351562 43.38399887084961,-189.2050018310547 49.2859992980957,-186.572998046875 C77.64600372314453,-173.92599487304688 111.48300170898438,-181.05999755859375 132.82699584960938,-204.82200622558594 C154.17100524902344,-228.58399963378906 157.71299743652344,-263.06298828125 142.2010040283203,-290.0140075683594 C138.9720001220703,-295.62298583984375 131.21800231933594,-296.4320068359375 126.88800048828125,-291.6109924316406z"/></g><g opacity="1" transform="matrix(1,0,0,1,0,0)"><path fill="rgb(142,224,0)" fill-opacity="1" d=" M173.93800354003906,-270.1600036621094 C173.93800354003906,-270.1600036621094 93.14800262451172,-180.218994140625 93.14800262451172,-180.218994140625 C88.81800079345703,-175.3990020751953 90.43099975585938,-167.75399780273438 96.33399963378906,-165.12100219726562 C124.69400024414062,-152.4739990234375 158.52999877929688,-159.60899353027344 179.87399291992188,-183.37100219726562 C201.21600341796875,-207.13299560546875 204.75999450683594,-241.61199951171875 189.2469940185547,-268.56201171875 C186.02000427246094,-274.1709899902344 178.26600646972656,-274.9800109863281 173.93800354003906,-270.1600036621094z"/></g><g opacity="1" transform="matrix(1,0,0,1,0,0)"><path fill="rgb(137,226,25)" fill-opacity="1" d=" M-129.86399841308594,-291.8550109863281 C-129.86399841308594,-291.8550109863281 -51.56700134277344,-203.8260040283203 -51.56700134277344,-203.8260040283203 C-47.369998931884766,-199.10800170898438 -48.99700164794922,-191.697998046875 -54.77899932861328,-189.19400024414062 C-82.56199645996094,-177.15899658203125 -115.56300354003906,-184.3800048828125 -136.24899291992188,-207.63699340820312 C-156.93499755859375,-230.8939971923828 -160.16200256347656,-264.40301513671875 -144.8300018310547,-290.43701171875 C-141.63900756835938,-295.8559875488281 -134.06100463867188,-296.572998046875 -129.86399841308594,-291.8550109863281z"/></g><g opacity="1" transform="matrix(1,0,0,1,0,0)"><path fill="rgb(137,226,25)" fill-opacity="1" d=" M-177.78700256347656,-270.0769958496094 C-177.78700256347656,-270.0769958496094 -104.12999725341797,-187.26600646972656 -104.12999725341797,-187.26600646972656 C-100.18199920654297,-182.82699584960938 -101.71199798583984,-175.85699462890625 -107.1520004272461,-173.50100708007812 C-133.28799438476562,-162.17999267578125 -164.33299255371094,-168.97300720214844 -183.79299926757812,-190.8520050048828 C-203.2530059814453,-212.72999572753906 -206.28799438476562,-244.2530059814453 -191.86500549316406,-268.7439880371094 C-188.86300659179688,-273.84100341796875 -181.73500061035156,-274.5159912109375 -177.78700256347656,-270.0769958496094z"/></g><g opacity="1" transform="matrix(1,0,0,1,0,0)"><path fill="rgb(137,226,25)" fill-opacity="1" d=" M-246.9239959716797,-135.58200073242188 C-246.9239959716797,-195.99000549316406 -197.9530029296875,-244.9600067138672 -137.5449981689453,-244.9600067138672 C-77.13700103759766,-244.9600067138672 -28.16699981689453,-195.99000549316406 -28.16699981689453,-135.58200073242188 C-28.16699981689453,-135.58200073242188 -28.16699981689453,-81.68499755859375 -28.16699981689453,-81.68499755859375 C-28.16699981689453,-21.277000427246094 -77.13700103759766,27.694000244140625 -137.5449981689453,27.694000244140625 C-197.9530029296875,27.694000244140625 -246.9239959716797,-21.277000427246094 -246.9239959716797,-81.68499755859375 C-246.9239959716797,-81.68499755859375 -246.9239959716797,-135.58200073242188 -246.9239959716797,-135.58200073242188z"/></g><g opacity="1" transform="matrix(1,0,0,1,0,0)"><path fill="rgb(137,226,25)" fill-opacity="1" d=" M24.145999908447266,-135.58200073242188 C24.145999908447266,-195.99000549316406 73.11699676513672,-244.9600067138672 133.52499389648438,-244.9600067138672 C193.93299865722656,-244.9600067138672 242.90199279785156,-195.99000549316406 242.90199279785156,-135.58200073242188 C242.90199279785156,-135.58200073242188 242.90199279785156,-81.68499755859375 242.90199279785156,-81.68499755859375 C242.90199279785156,-21.277000427246094 193.93299865722656,27.694000244140625 133.52499389648438,27.694000244140625 C73.11699676513672,27.694000244140625 24.145999908447266,-21.277000427246094 24.145999908447266,-81.68499755859375 C24.145999908447266,-81.68499755859375 24.145999908447266,-135.58200073242188 24.145999908447266,-135.58200073242188z"/></g><g opacity="1" transform="matrix(1,0,0,1,0,0)"><path fill="rgb(255,255,255)" fill-opacity="1" d=" M-134.37399291992188,-206.9149932861328 C-134.37399291992188,-206.9149932861328 -134.3730010986328,-206.9149932861328 -134.3730010986328,-206.9149932861328 C-92.3499984741211,-206.9149932861328 -58.284000396728516,-172.8489990234375 -58.284000396728516,-130.8260040283203 C-58.284000396728516,-130.8260040283203 -58.284000396728516,-88.0250015258789 -58.284000396728516,-88.0250015258789 C-58.284000396728516,-46.00199890136719 -92.3499984741211,-11.935999870300293 -134.3730010986328,-11.935999870300293 C-134.3730010986328,-11.935999870300293 -134.37399291992188,-11.935999870300293 -134.37399291992188,-11.935999870300293 C-176.39700317382812,-11.935999870300293 -210.46299743652344,-46.00199890136719 -210.46299743652344,-88.0250015258789 C-210.46299743652344,-88.0250015258789 -210.46299743652344,-130.8260040283203 -210.46299743652344,-130.8260040283203 C-210.46299743652344,-172.8489990234375 -176.39700317382812,-206.9149932861328 -134.37399291992188,-206.9149932861328z"/></g><g opacity="1" transform="matrix(1,0,0,1,0,0)"><path fill="rgb(255,255,255)" fill-opacity="1" d=" M130.35400390625,-206.9149932861328 C130.35400390625,-206.9149932861328 130.35400390625,-206.9149932861328 130.35400390625,-206.9149932861328 C172.3769989013672,-206.9149932861328 206.44400024414062,-172.8489990234375 206.44400024414062,-130.8260040283203 C206.44400024414062,-130.8260040283203 206.44400024414062,-88.0250015258789 206.44400024414062,-88.0250015258789 C206.44400024414062,-46.00199890136719 172.3769989013672,-11.935999870300293 130.35400390625,-11.935999870300293 C130.35400390625,-11.935999870300293 130.35400390625,-11.935999870300293 130.35400390625,-11.935999870300293 C88.33100128173828,-11.935999870300293 54.263999938964844,-46.00199890136719 54.263999938964844,-88.0250015258789 C54.263999938964844,-88.0250015258789 54.263999938964844,-130.8260040283203 54.263999938964844,-130.8260040283203 C54.263999938964844,-172.8489990234375 88.33100128173828,-206.9149932861328 130.35400390625,-206.9149932861328z"/></g><g opacity="1" transform="matrix(1,0,0,1,0,0)"><path fill="rgb(75,75,75)" fill-opacity="1" d=" M71.7020034790039,-119.72799682617188 C87.45999908447266,-119.72899627685547 100.23500061035156,-132.5019989013672 100.23500061035156,-148.26100158691406 C100.23500061035156,-153.41400146484375 98.86900329589844,-158.24899291992188 96.47899627685547,-162.4219970703125 C99.91200256347656,-163.52200317382812 103.56999969482422,-164.11500549316406 107.36799621582031,-164.11500549316406 C127.06600189208984,-164.11500549316406 143.03500366210938,-148.14599609375 143.03500366210938,-128.447998046875 C143.03500366210938,-128.447998046875 143.03500366210938,-90.40299987792969 143.03500366210938,-90.40299987792969 C143.03500366210938,-70.70500183105469 127.06600189208984,-54.736000061035156 107.36799621582031,-54.736000061035156 C87.66999816894531,-54.736000061035156 71.7020034790039,-70.70500183105469 71.7020034790039,-90.40299987792969 C71.7020034790039,-90.40299987792969 71.7020034790039,-119.72799682617188 71.7020034790039,-119.72799682617188z"/></g><g opacity="1" transform="matrix(1,0,0,1,0,0)"><path fill="rgb(75,75,75)" fill-opacity="1" d=" M-147.3769989013672,-119.72799682617188 C-131.61900329589844,-119.72899627685547 -118.84400177001953,-132.5019989013672 -118.84400177001953,-148.26100158691406 C-118.84400177001953,-153.41400146484375 -120.20999908447266,-158.24899291992188 -122.5999984741211,-162.4219970703125 C-119.16699981689453,-163.52200317382812 -115.50900268554688,-164.11500549316406 -111.71099853515625,-164.11500549316406 C-92.01300048828125,-164.11500549316406 -76.04299926757812,-148.14599609375 -76.04299926757812,-128.447998046875 C-76.04299926757812,-128.447998046875 -76.04299926757812,-90.40299987792969 -76.04299926757812,-90.40299987792969 C-76.04299926757812,-70.70500183105469 -92.01300048828125,-54.736000061035156 -111.71099853515625,-54.736000061035156 C-131.40899658203125,-54.736000061035156 -147.3769989013672,-70.70500183105469 -147.3769989013672,-90.40299987792969 C-147.3769989013672,-90.40299987792969 -147.3769989013672,-119.72799682617188 -147.3769989013672,-119.72799682617188z"/></g><g opacity="1" transform="matrix(1,0,0,1,0,0)"><g opacity="1" transform="matrix(1,0,0,1,0,0)"><path fill="rgb(244,144,0)" fill-opacity="1" d=" M-2.010999917984009,-80.0999984741211 C19.746000289916992,-80.0999984741211 35.24100112915039,-63.422000885009766 35.24100112915039,-42.847999572753906 C35.24100112915039,-42.847999572753906 35.1150016784668,-32.96200180053711 35.1150016784668,-32.96200180053711 C35.1150016784668,-12.387999534606934 17.881999969482422,4.289999961853027 -2.13700008392334,4.289999961853027 C-22.1560001373291,4.289999961853027 -39.388999938964844,-12.387999534606934 -39.388999938964844,-32.96200180053711 C-39.388999938964844,-32.96200180053711 -39.26300048828125,-42.847999572753906 -39.26300048828125,-42.847999572753906 C-39.26300048828125,-63.422000885009766 -23.76799964904785,-80.0999984741211 -2.010999917984009,-80.0999984741211z"/></g><g opacity="1" transform="matrix(1,0,0,1,0,0)"><path fill="rgb(176,104,0)" fill-opacity="1" d=" M-2.010999917984009,-70.03600311279297 C13.496000289916992,-70.03600311279297 26.641000747680664,-57.20800018310547 26.641000747680664,-41.38399887084961 C26.641000747680664,-41.38399887084961 26.67099952697754,-60.742000579833984 26.67099952697754,-60.742000579833984 C26.67099952697754,-44.917999267578125 13.843000411987305,-32.09000015258789 -1.9809999465942383,-32.09000015258789 C-1.9809999465942383,-32.09000015258789 -1.9809999465942383,-32.09000015258789 -1.9809999465942383,-32.09000015258789 C-17.80500030517578,-32.09000015258789 -30.632999420166016,-44.917999267578125 -30.632999420166016,-60.742000579833984 C-30.632999420166016,-60.742000579833984 -30.663000106811523,-41.38399887084961 -30.663000106811523,-41.38399887084961 C-30.663000106811523,-57.20800018310547 -17.51799964904785,-70.03600311279297 -2.010999917984009,-70.03600311279297z"/></g><g opacity="1" transform="matrix(1,0,0,1,0,0)"><path fill="rgb(255,184,209)" fill-opacity="1" d=" M-2.184000015258789,-54.4109992980957 C23.895999908447266,-54.4109992980957 26.67099952697754,-60.742000579833984 26.67099952697754,-60.742000579833984 C26.67099952697754,-44.917999267578125 13.843000411987305,-32.09000015258789 -1.9809999465942383,-32.09000015258789 C-1.9809999465942383,-32.09000015258789 -1.9809999465942383,-32.09000015258789 -1.9809999465942383,-32.09000015258789 C-17.80500030517578,-32.09000015258789 -30.632999420166016,-44.917999267578125 -30.632999420166016,-60.742000579833984 C-30.632999420166016,-60.742000579833984 -28.263999938964844,-54.4109992980957 -2.184000015258789,-54.4109992980957z"/></g><g opacity="1" transform="matrix(1,0,0,1,0,0)"><path fill="rgb(255,194,0)" fill-opacity="1" d=" M51.63100051879883,-38.85200119018555 C52.06399917602539,-37.138999938964844 50.90299987792969,-35.46200180053711 49.16299819946289,-35.15399932861328 C49.16299819946289,-35.15399932861328 -1.3940000534057617,-26.202999114990234 -1.3940000534057617,-26.202999114990234 C-1.3940000534057617,-26.202999114990234 -51.95100021362305,-35.15399932861328 -51.95100021362305,-35.15399932861328 C-53.691001892089844,-35.46200180053711 -54.85300064086914,-37.138999938964844 -54.41999816894531,-38.85200119018555 C-48.43000030517578,-62.55699920654297 -26.959999084472656,-80.0999984741211 -1.3940000534057617,-80.0999984741211 C24.172000885009766,-80.0999984741211 45.64099884033203,-62.55699920654297 51.63100051879883,-38.85200119018555z"/></g><g opacity="1" transform="matrix(1,0,0,1,0,0)"><path stroke-linecap="round" stroke-linejoin="round" fill-opacity="0" stroke="rgb(255,222,0)" stroke-opacity="1" stroke-width="15.852" d=" M-12.425000190734863,-65.1760025024414 C-8.878999710083008,-66.70800018310547 0.8700000047683716,-67.802001953125 8.182999610900879,-65.1760025024414"/></g></g><g opacity="1" transform="matrix(1,0,0,1,0,0)"><path fill="rgb(137,226,25)" fill-opacity="1" d=" M-1.3070000410079956,-97.66799926757812 C42.77199935913086,-97.66799926757812 67.77300262451172,11.543000221252441 133.56199645996094,11.543000221252441 C199.3509979248047,11.543000221252441 223.03599548339844,-97.66799926757812 223.03599548339844,-97.66799926757812 C223.03599548339844,-97.66799926757812 117.77200317382812,-114.11499786376953 57.24599838256836,-50.29899978637695 C34.220001220703125,-64.77300262451172 32.24599838256836,-87.79900360107422 -0.6489999890327454,-87.79900360107422 C-33.54399871826172,-87.79900360107422 -35.516998291015625,-77.93000030517578 -58.542999267578125,-55.5620002746582 C-112.48999786376953,-97.32599639892578 -225.6490020751953,-102.27300262451172 -225.6490020751953,-102.27300262451172 C-225.6490020751953,-102.27300262451172 -219.07000732421875,6.28000020980835 -130.91200256347656,6.28000020980835 C-42.75400161743164,6.28000020980835 -45.38600158691406,-97.66799926757812 -1.3070000410079956,-97.66799926757812z"/><path stroke-linecap="butt" stroke-linejoin="miter" fill-opacity="0" stroke-miterlimit="4" stroke="rgb(255,222,0)" stroke-opacity="1" stroke-width="0" d=" M-1.3070000410079956,-97.66799926757812 C42.77199935913086,-97.66799926757812 67.77300262451172,11.543000221252441 133.56199645996094,11.543000221252441 C199.3509979248047,11.543000221252441 223.03599548339844,-97.66799926757812 223.03599548339844,-97.66799926757812 C223.03599548339844,-97.66799926757812 117.77200317382812,-114.11499786376953 57.24599838256836,-50.29899978637695 C34.220001220703125,-64.77300262451172 32.24599838256836,-87.79900360107422 -0.6489999890327454,-87.79900360107422 C-33.54399871826172,-87.79900360107422 -35.516998291015625,-77.93000030517578 -58.542999267578125,-55.5620002746582 C-112.48999786376953,-97.32599639892578 -225.6490020751953,-102.27300262451172 -225.6490020751953,-102.27300262451172 C-225.6490020751953,-102.27300262451172 -219.07000732421875,6.28000020980835 -130.91200256347656,6.28000020980835 C-42.75400161743164,6.28000020980835 -45.38600158691406,-97.66799926757812 -1.3070000410079956,-97.66799926757812z"/></g></g><g transform="matrix(0.3799999952316284,0,0,0.3799999952316284,959.2466430664062,1085.3638916015625)" opacity="1" style="display: block;"><g opacity="1" transform="matrix(1,0,0,1,0,0)"><path fill="rgb(129,234,95)" fill-opacity="1" d=" M234.48699951171875,171.18299865722656 C187.22799682617188,252.2270050048828 99.36599731445312,306.6889953613281 -1.215999960899353,306.6889953613281 C-99.73899841308594,306.6889953613281 -186.05599975585938,254.4340057373047 -233.96400451660156,176.1269989013672 C-259.27899169921875,134.74899291992188 -215.1219940185547,251.13999938964844 -0.6489999890327454,251.13999938964844 C215.14100646972656,251.13999938964844 257.9800109863281,130.8939971923828 234.48699951171875,171.18299865722656z"/></g></g><g transform="matrix(0.42261841893196106,0.906308114528656,-0.906308114528656,0.42261841893196106,1328.040283203125,1032.436279296875)" opacity="1" style="display: block;"><g opacity="1" transform="matrix(1,0,0,1,0,0)"><path stroke-linecap="round" stroke-linejoin="round" fill-opacity="0" stroke="rgb(244,144,0)" stroke-opacity="1" stroke-width="28" d=" M12,376.375 C12,376.375 33.125,376.375 33.125,376.375"/></g></g><g transform="matrix(0.42261841893196106,-0.906308114528656,0.906308114528656,0.42261841893196106,571.38916015625,1073.33349609375)" opacity="1" style="display: block;"><g opacity="1" transform="matrix(1,0,0,1,0,0)"><path stroke-linecap="round" stroke-linejoin="round" fill-opacity="0" stroke="rgb(244,144,0)" stroke-opacity="1" stroke-width="28" d=" M12,376.375 C12,376.375 33.125,376.375 33.125,376.375"/></g></g></g></g><g mask="url(#__lottie_element_34_1)" style="display: none;"><g clip-path="url(#__lottie_element_38)"><g style="display: none;"><g><path/></g></g><g style="display: none;"><g><path/></g></g><g style="display: none;"><g><path/></g></g><g style="display: none;"><g><path/></g></g><g style="display: none;"><g><path/></g><g><path/></g><g><path/></g><g><path/></g><g><path/></g><g><path/></g><g><path/></g><g><path/></g><g><path/></g><g><path/></g><g><path/></g><g><path/></g><g><path/></g><g><path/></g><g><path/></g><g><g><path/></g><g><path/></g><g><path/></g><g><path/></g><g><path stroke-linecap="round" stroke-linejoin="round" fill-opacity="0"/></g></g><g><path/><path stroke-linecap="butt" stroke-linejoin="miter" fill-opacity="0" stroke-miterlimit="4"/></g></g><g style="display: none;"><g><path/></g></g><g style="display: none;"><g><path stroke-linecap="round" stroke-linejoin="round" fill-opacity="0"/></g></g><g style="display: none;"><g><path stroke-linecap="round" stroke-linejoin="round" fill-opacity="0"/></g></g></g></g><g mask="url(#__lottie_element_3_1)" style="display: none;"><g clip-path="url(#__lottie_element_7)"><g style="display: none;"><g><path/></g></g><g style="display: none;"><g><path/></g></g><g style="display: none;"><g><path/></g></g><g style="display: none;"><g><path/></g></g><g style="display: none;"><g><path/></g><g><path/></g><g><path/></g><g><path/></g><g><path/></g><g><path/></g><g><path/></g><g><path/></g><g><path/></g><g><path/></g><g><path/></g><g><path/></g><g><path/></g><g><path/></g><g><path/></g><g><g><path/></g><g><path/></g><g><path/></g><g><path/></g><g><path stroke-linecap="round" stroke-linejoin="round" fill-opacity="0"/></g></g><g><path/><path stroke-linecap="butt" stroke-linejoin="miter" fill-opacity="0" stroke-miterlimit="4"/></g></g><g style="display: none;"><g><path/></g></g><g style="display: none;"><g><path stroke-linecap="round" stroke-linejoin="round" fill-opacity="0"/></g></g><g style="display: none;"><g><path stroke-linecap="round" stroke-linejoin="round" fill-opacity="0"/></g></g></g></g></g></svg>